<?xml version="1.0" encoding="UTF-8"?>
<svg version="1.1" xmlns="http://www.w3.org/2000/svg" width="512" height="512">
<path d="M0 0 C2.73646784 -0.00242229 5.47292064 -0.00930797 8.2093811 -0.01593018 C14.83987162 -0.02919693 21.47025966 -0.02642151 28.10075402 -0.01769225 C33.49453582 -0.0108881 38.88828911 -0.01001072 44.28207397 -0.0132637 C45.05281193 -0.0137234 45.82354988 -0.0141831 46.61764354 -0.01465673 C48.18389456 -0.01561601 49.75014558 -0.01658865 51.31639659 -0.0175745 C65.96709239 -0.02610772 80.61773167 -0.01632686 95.26841819 -0.0001734 C107.81080968 0.01322789 120.35311783 0.01089922 132.89550781 -0.00292969 C147.4975296 -0.01902219 162.09950199 -0.02528394 176.70153141 -0.0160929 C178.26168377 -0.01513735 179.82183615 -0.01419424 181.38198853 -0.0132637 C182.1494039 -0.01280088 182.91681928 -0.01233805 183.70748967 -0.0118612 C189.08823893 -0.00928229 194.46895657 -0.01361844 199.84970093 -0.02070236 C206.41642384 -0.0291585 212.98303932 -0.02675151 219.54975009 -0.01086013 C222.89350394 -0.00303218 226.23693307 -0.00143451 229.58070755 -0.00980759 C255.23894557 -0.06810794 255.23894557 -0.06810794 267.83203125 3.38818359 C268.95439178 3.67610496 268.95439178 3.67610496 270.09942627 3.96984291 C301.21354125 12.47515432 324.76604939 34.31205513 340.7421875 61.65771484 C349.12530036 77.18950417 352.98682718 94.21823878 352.97247314 111.75891113 C352.97692983 113.46709935 352.97692983 113.46709935 352.98147655 115.20979643 C352.99014221 119.0225215 352.99167001 122.83521509 352.99316406 126.64794922 C352.99725792 129.38323144 353.00279839 132.11851039 353.00820923 134.85379028 C353.02176483 142.28389641 353.02781319 149.71399711 353.03221989 157.14411354 C353.0349875 161.78914631 353.03922584 166.43417701 353.04372406 171.07920837 C353.05591404 183.95557779 353.06621328 196.83194556 353.06959915 209.70832062 C353.06981872 210.53173249 353.07003828 211.35514436 353.0702645 212.20350811 C353.07048278 213.02882496 353.07070106 213.8541418 353.07092595 214.70446825 C353.07136941 216.3767093 353.07181597 218.04895036 353.07226562 219.72119141 C353.07248705 220.55067038 353.07270848 221.38014934 353.07293662 222.23476404 C353.07688082 235.66165264 353.09432451 249.08848685 353.11762515 262.51535445 C353.14138845 276.32101215 353.15380329 290.12664261 353.15496707 303.93232107 C353.15588114 311.6753546 353.16156532 319.41831727 353.17978668 327.16133118 C353.19525516 333.75751242 353.20026869 340.35360091 353.19204858 346.94979686 C353.18816548 350.30970773 353.19061756 353.66928175 353.20310593 357.02919388 C353.29329106 382.81626796 353.29329106 382.81626796 349.83203125 395.38818359 C349.64004276 396.1362603 349.44805428 396.88433701 349.25024796 397.6550827 C341.53064263 425.90892478 321.94271902 450.55241823 296.77099609 465.29296875 C279.36444859 475.12497229 261.47360496 480.54500213 241.46130371 480.52862549 C239.75311549 480.53308217 239.75311549 480.53308217 238.01041842 480.53762889 C234.19769335 480.54629456 230.38499976 480.54782235 226.57226562 480.54931641 C223.8369834 480.55341026 221.10170445 480.55895074 218.36642456 480.56436157 C210.93631844 480.57791717 203.50621773 480.58396553 196.0761013 480.58837223 C191.43106854 480.59113984 186.78603784 480.59537818 182.14100647 480.5998764 C169.26463705 480.61206638 156.38826929 480.62236562 143.51189423 480.6257515 C142.68848235 480.62597106 141.86507048 480.62619063 141.01670673 480.62641685 C139.77873146 480.62674426 139.77873146 480.62674426 138.51574659 480.62707829 C136.84350554 480.62752175 135.17126449 480.62796831 133.49902344 480.62841797 C132.66954447 480.6286394 131.8400655 480.62886083 130.9854508 480.62908897 C117.5585622 480.63303317 104.131728 480.65047685 90.70486039 480.67377749 C76.8992027 480.69754079 63.09357224 480.70995564 49.28789377 480.71111941 C41.54486025 480.71203348 33.80189758 480.71771766 26.05888367 480.73593903 C19.46270243 480.7514075 12.86661394 480.75642104 6.27041799 480.74820092 C2.91050711 480.74431783 -0.44906691 480.7467699 -3.80897903 480.75925827 C-29.75788575 480.85000938 -29.75788575 480.85000938 -42.16796875 477.38818359 C-43.41612617 477.04172413 -44.6642836 476.69526466 -45.95026398 476.33830643 C-62.44700795 471.52100486 -77.36560195 462.75876183 -90.16796875 451.38818359 C-91.05742188 450.59927734 -91.946875 449.81037109 -92.86328125 448.99755859 C-111.65132134 431.21076202 -126.26217529 404.15752797 -127.26163721 377.93018627 C-127.30266956 374.95887019 -127.31084239 371.98905789 -127.30841064 369.01745605 C-127.31138177 367.87866391 -127.31435289 366.73987176 -127.31741405 365.56657076 C-127.32607971 361.75384569 -127.32760751 357.9411521 -127.32910156 354.12841797 C-127.33319542 351.39313574 -127.33873589 348.6578568 -127.34414673 345.9225769 C-127.35770233 338.49247078 -127.36375069 331.06237008 -127.36815739 323.63225365 C-127.370925 318.98722088 -127.37516334 314.34219018 -127.37966156 309.69715881 C-127.39185154 296.8207894 -127.40215078 283.94442163 -127.40553665 271.06804657 C-127.40575622 270.2446347 -127.40597578 269.42122283 -127.406202 268.57285908 C-127.40642028 267.74754223 -127.40663856 266.92222539 -127.40686345 266.07189894 C-127.40730691 264.39965788 -127.40775347 262.72741683 -127.40820312 261.05517578 C-127.40842455 260.22569681 -127.40864598 259.39621784 -127.40887412 258.54160315 C-127.41281832 245.11471455 -127.43026201 231.68788034 -127.45356265 218.26101273 C-127.47732595 204.45535504 -127.48974079 190.64972458 -127.49090457 176.84404612 C-127.49181864 169.10101259 -127.49750282 161.35804992 -127.51572418 153.61503601 C-127.53119266 147.01885477 -127.53620619 140.42276628 -127.52798608 133.82657033 C-127.52410298 130.46665946 -127.52655506 127.10708544 -127.53904343 123.74717331 C-127.62922856 97.96009922 -127.62922856 97.96009922 -124.16796875 85.38818359 C-123.97598026 84.64010689 -123.78399178 83.89203018 -123.58618546 83.12128448 C-115.573927 53.79632867 -95.18297248 29.5617511 -69.16796875 14.38818359 C-60.6318488 9.54335876 -51.66585489 5.88819945 -42.16796875 3.38818359 C-41.26099243 3.13823324 -40.35401611 2.88828289 -39.41955566 2.63075829 C-26.40511851 -0.46950723 -13.3071957 -0.03332226 0 0 Z M-74.35546875 60.57568359 C-94.5399391 83.54753319 -95.32035573 110.57873354 -95.31323242 139.52758789 C-95.31622852 141.96332348 -95.31963209 144.39905859 -95.32341003 146.83479309 C-95.33129659 152.73928185 -95.33446268 158.6437612 -95.33502241 164.54825415 C-95.33549985 169.35423622 -95.33756587 174.16021503 -95.34072304 178.96619606 C-95.34951632 192.63259195 -95.35414447 206.29898004 -95.35339256 219.96537878 C-95.35335261 220.70004841 -95.35331265 221.43471804 -95.35327148 222.19165039 C-95.3532306 222.92723098 -95.35318972 223.66281156 -95.3531476 224.42068247 C-95.35274146 236.33198421 -95.36230646 248.24325429 -95.37640985 260.15454688 C-95.39082199 272.42472225 -95.39767739 284.69488222 -95.39681607 296.96506625 C-95.39648578 303.83786122 -95.39915875 310.71062299 -95.40999413 317.58341026 C-95.42012834 324.0521888 -95.4197147 330.52091561 -95.41247749 336.98969841 C-95.41143885 339.35099643 -95.41375121 341.71229892 -95.41983795 344.07358932 C-95.49492016 375.24302005 -92.32595454 401.45129573 -69.640625 425.01318359 C-50.9341348 443.03294508 -27.55493708 448.56381699 -2.27241516 448.52189636 C-1.24510149 448.52416192 -0.21778781 448.52642748 0.84065658 448.52876168 C4.24624052 448.53503757 7.651784 448.53427648 11.05737305 448.53344727 C13.51428783 448.53644277 15.97120214 448.53984619 18.42811584 448.54362488 C24.38788797 448.55151669 30.34764449 448.5546778 36.3074204 448.55523726 C41.15777135 448.55571442 46.00811908 448.55777911 50.85846901 448.56093788 C64.64651376 448.56973293 78.43455076 448.57435906 92.22259834 448.57360741 C93.33480596 448.57354747 93.33480596 448.57354747 94.46948242 448.57348633 C95.58306686 448.57342501 95.58306686 448.57342501 96.71914796 448.57336245 C108.74111966 448.57295629 120.76306 448.58252112 132.78502264 448.59662469 C145.1647727 448.61103203 157.54450751 448.61789249 169.92426616 448.61703092 C176.86020123 448.61670045 183.79610341 448.61938112 190.73203087 448.63020897 C197.25988876 448.64033546 203.78769537 448.63993437 210.31555748 448.63269234 C212.69985048 448.63165281 215.08414791 448.63397147 217.46843338 448.6400528 C247.93659649 448.7126794 274.48716111 445.50482602 297.26953125 422.97802734 C319.5393878 399.24106876 320.98486087 371.99651881 320.97729492 341.2487793 C320.98029102 338.81304371 320.98369459 336.3773086 320.98747253 333.9415741 C320.99535909 328.03708534 320.99852518 322.13260598 320.99908491 316.22811303 C320.99956235 311.42213097 321.00162837 306.61615216 321.00478554 301.81017113 C321.01357882 288.14377523 321.01820697 274.47738715 321.01745506 260.8109884 C321.01741511 260.07631877 321.01737515 259.34164914 321.01733398 258.5847168 C321.0172931 257.84913621 321.01725222 257.11355563 321.0172101 256.35568472 C321.01680396 244.44438298 321.02636896 232.5331129 321.04047235 220.62182031 C321.05488449 208.35164494 321.06173989 196.08148497 321.06087857 183.81130093 C321.06054828 176.93850597 321.06322125 170.0657442 321.07405663 163.19295692 C321.08419084 156.72417839 321.0837772 150.25545158 321.07653999 143.78666878 C321.07550135 141.42537076 321.07781371 139.06406826 321.08390045 136.70277786 C321.15898266 105.53334713 317.99001704 79.32507146 295.3046875 55.76318359 C276.5981973 37.74342211 253.21899958 32.21255019 227.93647766 32.25447083 C226.90916399 32.25220527 225.88185031 32.24993971 224.82340592 32.2476055 C221.41782198 32.24132962 218.0122785 32.24209071 214.60668945 32.24291992 C212.14977467 32.23992442 209.69286036 32.23652099 207.23594666 32.23274231 C201.27617453 32.2248505 195.31641801 32.22168939 189.3566421 32.22112993 C184.50629115 32.22065277 179.65594342 32.21858807 174.80559349 32.21542931 C161.01754874 32.20663426 147.22951174 32.20200813 133.44146416 32.20275978 C132.32925654 32.20281971 132.32925654 32.20281971 131.19458008 32.20288086 C130.08099564 32.20294218 130.08099564 32.20294218 128.94491454 32.20300474 C116.92294284 32.20341089 104.9010025 32.19384607 92.87903986 32.17974249 C80.4992898 32.16533516 68.11955499 32.1584747 55.73979634 32.15933627 C48.80386127 32.15966674 41.86795909 32.15698606 34.93203163 32.14615822 C28.40417374 32.13603173 21.87636713 32.13643281 15.34850502 32.14367485 C12.96421202 32.14471438 10.57991459 32.14239571 8.19562912 32.13631439 C-24.04455985 32.05946383 -50.89285373 36.21891404 -74.35546875 60.57568359 Z " fill="#000000" transform="translate(143.16796875,15.61181640625)"/>
<path d="M0 0 C4.97736361 2.31091882 7.30524846 5.28695764 10 10 C10.50552368 13.27806091 10.50552368 13.27806091 10.51416016 16.86889648 C10.52128525 17.52842819 10.52841034 18.1879599 10.53575134 18.86747742 C10.55495427 21.03565911 10.54676109 23.20285571 10.5390625 25.37109375 C10.54898594 26.89601542 10.56093341 28.42092512 10.57479858 29.94581604 C10.60712317 33.95959551 10.61754511 37.97310274 10.62164307 41.98699951 C10.63039723 48.37737898 10.6665626 54.76753442 10.7138176 61.15773201 C10.72618319 63.36585936 10.72566269 65.57369097 10.72354126 67.78184509 C10.77153739 85.42848867 12.18758473 102.6015699 25 116 C27.51631288 118.30018785 30.10537706 120.20314916 33 122 C33.96292969 122.62068359 33.96292969 122.62068359 34.9453125 123.25390625 C42.52141832 127.38763699 52.49492677 127.39190772 60.75 125.3046875 C63.00313202 124.37370587 64.95229144 123.31990853 67 122 C67.68320313 121.57589844 68.36640625 121.15179688 69.0703125 120.71484375 C78.42821553 114.32798598 84.36863699 104.99227536 87 94 C88.74705504 84.55517399 89.28356454 75.31748541 89.27439499 65.73945618 C89.27341015 63.46818203 89.28659073 61.1973564 89.30337524 58.92614746 C89.34911061 52.48107067 89.37428817 46.03605462 89.38085938 39.59082031 C89.38587988 35.61928277 89.41012929 31.64823576 89.44618607 27.67686462 C89.45594535 26.17466682 89.45833723 24.67240135 89.45301437 23.17018127 C89.44592303 21.07450705 89.46325624 18.98030102 89.48583984 16.88476562 C89.48868988 15.69677368 89.49153992 14.50878174 89.49447632 13.28479004 C90.27879394 8.18845367 92.82901454 5.11243619 96.5 1.625 C101.66500009 -0.77303575 106.4002288 -0.75381535 112 0 C116.97076217 2.30785387 119.35362717 5.26019628 122 10 C122.38023788 12.84678094 122.54868544 15.29998956 122.51757812 18.13818359 C122.5245874 18.932659 122.53159668 19.7271344 122.53881836 20.54568481 C122.55637023 23.16362872 122.54477475 25.78048313 122.53125 28.3984375 C122.53394839 30.23483485 122.5378337 32.0712308 122.54284668 33.90762329 C122.54874019 37.75935449 122.54019347 41.6107144 122.52148438 45.46240234 C122.49885565 50.35525823 122.51171581 55.24722851 122.53577423 60.14005089 C122.55037441 63.93753467 122.54555918 67.73481608 122.53526306 71.53230667 C122.53262639 73.33328993 122.5357555 75.13429262 122.54518127 76.93525314 C122.60414799 91.38534477 121.27011031 105.34241815 114.25 118.3125 C113.73566406 119.29766602 113.73566406 119.29766602 113.2109375 120.30273438 C103.25870803 138.88144011 88.92815277 151.54541419 68.9609375 158.125 C52.26141759 163.05995047 33.88044509 161.07898191 18.48828125 153.203125 C-1.64715844 141.51007059 -13.98113155 123.87308753 -20.30859375 101.76953125 C-21.65365842 96.38167334 -22.15729845 91.37148774 -22.17700195 85.81665039 C-22.18685875 84.60106194 -22.18685875 84.60106194 -22.19691467 83.36091614 C-22.21656199 80.68982846 -22.22828847 78.01879665 -22.23828125 75.34765625 C-22.24235678 74.43299528 -22.2464323 73.51833431 -22.25063133 72.57595634 C-22.27145127 67.73854679 -22.28577297 62.9011653 -22.29516602 58.0637207 C-22.30624761 53.07242935 -22.34067925 48.08158166 -22.38033772 43.09044743 C-22.40648795 39.24624303 -22.41485622 35.40214494 -22.41844749 31.55785942 C-22.42331421 29.7178795 -22.43493065 27.87790435 -22.45348549 26.03801155 C-22.47785296 23.46256359 -22.47691705 20.88827227 -22.4699707 18.31274414 C-22.48278076 17.55670898 -22.49559082 16.80067383 -22.50878906 16.02172852 C-22.4581542 10.86031413 -21.22653447 7.98810466 -18 4 C-12.72867143 -1.00776214 -6.89190982 -0.92775709 0 0 Z " fill="#000000" transform="translate(182,176)"/>
<path d="M0 0 C4.64273557 2.1555558 8.06660406 5.20452111 10 10 C10.60035632 14.4767811 10.54615684 18.92632897 10.51757812 23.4375 C10.523003 24.80795026 10.53012771 26.17839468 10.53881836 27.54882812 C10.55701167 31.25964736 10.55000102 34.97002041 10.53730202 38.68084717 C10.52715349 42.56979549 10.53657283 46.45870638 10.54284668 50.34765625 C10.55011772 56.87767372 10.54054976 63.40751005 10.52148438 69.9375 C10.49971654 77.48005185 10.5067683 85.02217116 10.52879 92.56471252 C10.54695959 99.04813837 10.54949474 105.53143423 10.53903532 112.01487732 C10.53280891 115.88385098 10.53194111 119.75262153 10.54518127 123.62158203 C10.55676204 127.25956402 10.54867426 130.89699 10.52560425 134.53491211 C10.51781847 136.50178265 10.52965409 138.46870039 10.54211426 140.43554688 C10.43924863 151.17471866 10.43924863 151.17471866 6 156 C2.18069828 159.62833663 -0.88279006 160.31000458 -6 160.5 C-11.11720994 160.31000458 -14.18069828 159.62833663 -18 156 C-23.29266235 150.24709292 -22.56511592 144.06637603 -22.51757812 136.5625 C-22.523003 135.19204974 -22.53012771 133.82160532 -22.53881836 132.45117188 C-22.55701167 128.74035264 -22.55000102 125.02997959 -22.53730202 121.31915283 C-22.52715349 117.43020451 -22.53657283 113.54129362 -22.54284668 109.65234375 C-22.55011772 103.12232628 -22.54054976 96.59248995 -22.52148438 90.0625 C-22.49971654 82.51994815 -22.5067683 74.97782884 -22.52879 67.43528748 C-22.54695959 60.95186163 -22.54949474 54.46856577 -22.53903532 47.98512268 C-22.53280891 44.11614902 -22.53194111 40.24737847 -22.54518127 36.37841797 C-22.55676204 32.74043598 -22.54867426 29.10301 -22.52560425 25.46508789 C-22.51781847 23.49821735 -22.52965409 21.53129961 -22.54211426 19.56445312 C-22.43924863 8.82528134 -22.43924863 8.82528134 -18 4 C-12.72867143 -1.00776214 -6.89190982 -0.92775709 0 0 Z " fill="#000000" transform="translate(342,176)"/>
</svg>
